# xmcd CD database file
#
# Track frame offsets:
#	150
#	36316
#	47689
#	75356
#
# Disc length: 1279 seconds
#
# Revision: 0
# Processed by: cddbd v1.5.1PL0 Copyright (c) Steve Scherf et al.
# Submitted via: CDex 1.51
#
DISCID=2504fd04
DTITLE=中島美嘉 - Mika Nakashima The First Tour 2003
DYEAR=2005
DGENRE=JPop
TTITLE0=愛してる(JOY TO THE LOVE)
TTITLE1=THE ROSE
TTITLE2=A MIRACLE FOR YOU
TTITLE3=LAST WALTZ-
EXTD=YEAR: 2005
EXTT0=
EXTT1=
EXTT2=
EXTT3=
PLAYORDER=
